<svg width="64" height="93" viewBox="0 0 64 93" fill="none" xmlns="http://www.w3.org/2000/svg">
<path fill-rule="evenodd" clip-rule="evenodd" d="M40 92.0039H36V88.0039H40H44H48.004V92.0039H44H40Z" fill="#231F20"/>
<path fill-rule="evenodd" clip-rule="evenodd" d="M40 88.0039H36V84.0039H40H44V88.0039H40Z" fill="#EB7155"/>
<path fill-rule="evenodd" clip-rule="evenodd" d="M24 92.0039H20V88.0039H24H28H32V92.0039H28H24Z" fill="#231F20"/>
<path fill-rule="evenodd" clip-rule="evenodd" d="M24 88.0039H20V84.0039H24H28V88.0039H24Z" fill="#EB7155"/>
<path fill-rule="evenodd" clip-rule="evenodd" d="M44 68.0039V72V72.0039V76V80V84.004H40H36V80V76H32H28V80V84.004H24H20V80V76V72.0039V72V68.0039H24H28H32H36H40H44Z" fill="#02465B"/>
<path fill-rule="evenodd" clip-rule="evenodd" d="M24 68.0039H20V64.0039H24H28H32H36H40H44V68.0039H40H36H32H28H24Z" fill="#EB7155"/>
<path fill-rule="evenodd" clip-rule="evenodd" d="M52.004 48.0039V52.0039H56.0039V56.0039H60V60.0039H64V64.0078V64.0079V68.0078H60H56V64.0079V64.0078V60.0039H52.0039V56.0039H48V52.0039V48.0039H52.004Z" fill="#EB7155"/>
<path fill-rule="evenodd" clip-rule="evenodd" d="M36 40.0039V44.0039V48.0039H32H28V44.0039V40.0039H32H36Z" fill="#EB7155"/>
<path fill-rule="evenodd" clip-rule="evenodd" d="M36 40.0039V44.0039V48.0039H32H28V44.0039V40.0039H32H36Z" fill="black" fill-opacity="0.15"/>
<path fill-rule="evenodd" clip-rule="evenodd" d="M48 44.0039V48.0039V52.0039H44V56.0039V60.0039V64.0078V64.0079V68.0078H40H36H32H28H24H20V64.0079V64.0078V60.0039V56.0039V52.0039H16.0039V48.0039V44.0039H20H20.0039H24H28V48.0039H32H36V44.0039H40H44H48Z" fill="#FE9592"/>
<path fill-rule="evenodd" clip-rule="evenodd" d="M16.004 52.0039V48.0039H12V52.0039H8V56.0039H4V60.0039H0V64.0078V64.0079V68.0078H4H8V64.0079V64.0078V60.0039H12V56.0039H16.004V52.0039Z" fill="#EB7155"/>
<path fill-rule="evenodd" clip-rule="evenodd" d="M16 0V4H12V8.00391H8V12.0039V16.0039V20.0039H12V24.0039H16V20.0039V16.0039H20V12.0039H23.9961V8.004H28V12.0039H32H36V16.0039H40H44H48H52V12.0039V8.00391H48V4H44V0H40H36H32H28.0001H28H23.9961H20H19.9961H16Z" fill="black"/>
<path fill-rule="evenodd" clip-rule="evenodd" d="M44 28.0039H48V24.0039H44V28.0039Z" fill="#231F20"/>
<path fill-rule="evenodd" clip-rule="evenodd" d="M19.9961 28.0039H23.9961V24.0039H19.9961V28.0039Z" fill="#231F20"/>
<path fill-rule="evenodd" clip-rule="evenodd" d="M16 0V4H12V8.00391H8V12.0039V16.0039V20.0039H12V24.0039H16V20.0039V16.0039H20V12.0039H23.9961V8.004H28V12.0039H32H36V16.0039H40H44H48H52V12.0039V8.00391H48V4H44V0H40H36H32H28.0001H28H23.9961H20H19.9961H16Z" fill="#312938"/>
<path fill-rule="evenodd" clip-rule="evenodd" d="M23.9961 12.0039V8.00391H28.0001V12.0039H32H36V16.0039H40H44H48H52V20.0039V24.0039V28.0039V32.0039V36.0039H48V40H44H40H36H32H28.0001H28H23.9961H20H19.9961H16V36.0039H12V32.0039V28.0039H8V24.0039V20.0039H12V24.0039H16V20.0039V16.0039H19.9961V12.0039H23.9961ZM23.9961 28.0039H20V24.0039H23.9961V28.0039ZM44 28.0039H48V24.0039H44V28.0039Z" fill="#EB7155"/>
</svg>
