<svg width="56" height="88" viewBox="0 0 56 88" fill="none" xmlns="http://www.w3.org/2000/svg">
<path fill-rule="evenodd" clip-rule="evenodd" d="M20 88H24V84H20H16H12V88H16H20Z" fill="#77D6D9"/>
<path fill-rule="evenodd" clip-rule="evenodd" d="M20 84H24V80H20H16V84H20Z" fill="#77D6D9"/>
<path fill-rule="evenodd" clip-rule="evenodd" d="M36.0039 88H40V84H36.0039H36H32.0039H27.9999V88H32.0039H36H36.0039Z" fill="#77D6D9"/>
<path fill-rule="evenodd" clip-rule="evenodd" d="M20 88H24V84H20H16H12V88H16H20Z" fill="#231F20"/>
<path fill-rule="evenodd" clip-rule="evenodd" d="M36.0039 88H40.0039V84H36.0039H32H31.9999H28V88H31.9999H32H36.0039Z" fill="#231F20"/>
<path fill-rule="evenodd" clip-rule="evenodd" d="M36.0039 84H40V80H36.0039H36H32.0039V84H36H36.0039Z" fill="#77D6D9"/>
<path fill-rule="evenodd" clip-rule="evenodd" d="M28 68H32.0039V71.9922V75.9922V79.9962H36H36.0039H40V75.9922V71.9922V68V67.9922V64H36.0039H36H32.0039H28H27.9999H24H20H16V67.9922V68V71.9922V75.9922V79.9962H20H24V75.9922V71.9922V68H27.9999H28Z" fill="#02465B"/>
<path fill-rule="evenodd" clip-rule="evenodd" d="M36 64H40V60H36H32H28H24H20H16V64H20H24H28H32H36Z" fill="#77D6D9"/>
<path fill-rule="evenodd" clip-rule="evenodd" d="M36 64H40V60H36H32H28H24H20H16V64H20H24H28H32H36Z" fill="#77D6D9"/>
<path fill-rule="evenodd" clip-rule="evenodd" d="M16 52H20V48H16H12V52H8V56H4V60H0V64H4H8V60H12V56H16V52Z" fill="#77D6D9"/>
<path fill-rule="evenodd" clip-rule="evenodd" d="M24 35.9922V39.9922H20V43.9962H24H27.9999H28H32.0039H36.0039V39.9922H32.0039V35.9922H28H27.9999H24ZM24 48H27.9999H28H32.0039V44H28H27.9999H24V48Z" fill="#77D6D9"/>
<path fill-rule="evenodd" clip-rule="evenodd" d="M24 35.9922V39.9922H20V43.9962H24H27.9999H28H32.0039H36.0039V39.9922H32.0039V35.9922H28H27.9999H24ZM24 48H27.9999H28H32.0039V44H28H27.9999H24V48Z" fill="black" fill-opacity="0.15"/>
<path fill-rule="evenodd" clip-rule="evenodd" d="M16 43.9962H20V39.9922H16V43.9962ZM20 48H16V44H20H24V48H27.9999H28H32.0039V44H36H36.0039H40V48H36.0039V52V56H40V60V64H36.0039H36H32.0039H28H27.9999H24H20H16V60V56H20V52V48ZM36 43.9962H40V39.9922H36V43.9962Z" fill="#EDBF56"/>
<path fill-rule="evenodd" clip-rule="evenodd" d="M36 52H40V56H44V60H48V64H52H56V60H52V56H48V52H44V48H40H36V52Z" fill="#77D6D9"/>
<path fill-rule="evenodd" clip-rule="evenodd" d="M16 24H12V20H16V24Z" fill="#231F20"/>
<path fill-rule="evenodd" clip-rule="evenodd" d="M39.9961 24H35.9961V20H39.9961V24Z" fill="#231F20"/>
<path fill-rule="evenodd" clip-rule="evenodd" d="M48 28.0039V32V32.0039V36H44V40V44V48V52H48V56H52V52V48V44V40V36V32.0039V32V28.0039H48ZM35.9961 40H32V36H35.9961H36H39.9961V40H36H35.9961ZM20 40H24V36H20H16V40H20ZM20 56H16V52H20V56ZM35.9961 56H39.9961V52H35.9961V56Z" fill="#F7DD7A"/>
<path fill-rule="evenodd" clip-rule="evenodd" d="M28 12V8H32V12H36V16H39.9961V20H44V24V28.0039V28.004V32.0039H39.9961V36H36H35.9961H32H28H24H20H16H12V32.0039H8V28.004V28.0039V24V20H12V16H16H20H24V12H28ZM12 20V24H16V20H12ZM39.996 24H36V20H39.996V24ZM52 24H48V20V16H52V20V24Z" fill="#77D6D9"/>
<path fill-rule="evenodd" clip-rule="evenodd" d="M12 0V4H8V8V12V16V20H12V16H16H20H24V12H28V8H32V12H35.9961V16H39.996V20H44V24V28.0039V28.004V32H39.996V36V40V44V48H44V44V40V36H48V32.0039V32V28.004H52V24H48V20V16H52V12V8H48V4H44V0H39.9961H39.996H36H35.9961H32H28H24H20H16H12ZM12 48H16V44V40V36H12V40V44V48Z" fill="#F7DD7A"/>
</svg>
