<svg xmlns="http://www.w3.org/2000/svg" viewBox="0 0 13 13"><defs><style>.cls-1{fill:#231f20;}</style></defs><g id="Layer_2" data-name="Layer 2"><g id="Layer_1-2" data-name="Layer 1"><polygon class="cls-1" points="12 1 12 0 11 0 10 0 10 1 9 1 9 2 8 2 8 3 7 3 7 2 6 2 5 2 5 3 5 4 6 4 6 5 7 5 7 6 8 6 8 7 9 7 9 8 10 8 11 8 11 7 11 6 10 6 10 5 11 5 11 4 12 4 12 3 13 3 13 2 13 1 12 1"/><rect class="cls-1" x="7" y="7" width="1" height="1"/><rect class="cls-1" x="6" y="8" width="1" height="1"/><rect class="cls-1" x="5" y="9" width="1" height="1"/><rect class="cls-1" x="5" y="5" width="1" height="1"/><rect class="cls-1" x="4" y="10" width="1" height="1"/><rect class="cls-1" x="4" y="6" width="1" height="1"/><rect class="cls-1" x="3" y="11" width="1" height="1"/><rect class="cls-1" x="3" y="7" width="1" height="1"/><rect class="cls-1" x="2" y="8" width="1" height="1"/><polygon class="cls-1" points="1 12 1 13 2 13 3 13 3 12 2 12 1 12"/><rect class="cls-1" x="1" y="9" width="1" height="1"/><polygon class="cls-1" points="1 10 0 10 0 11 0 12 1 12 1 11 1 10"/></g></g></svg>