<svg width="58" height="80" viewBox="0 0 58 80" fill="none" xmlns="http://www.w3.org/2000/svg">
<path fill-rule="evenodd" clip-rule="evenodd" d="M38.4 51.1995H41.6032V47.9995H38.4V51.1995Z" fill="#F0CAA2"/>
<path fill-rule="evenodd" clip-rule="evenodd" d="M38.4 47.9998H41.6032V44.7998H38.4V47.9998Z" fill="#F0CAA2"/>
<path fill-rule="evenodd" clip-rule="evenodd" d="M25.6 44.7999H28.8V41.5967H25.6V44.7999Z" fill="#F0CAA2"/>
<path fill-rule="evenodd" clip-rule="evenodd" d="M25.6 41.5965H28.8V38.3965H25.6V41.5965Z" fill="#F0CAA2"/>
<path fill-rule="evenodd" clip-rule="evenodd" d="M22.4 44.7999H25.6V41.5967H22.4V44.7999Z" fill="#F0CAA2"/>
<path fill-rule="evenodd" clip-rule="evenodd" d="M22.4 41.5965H25.6V38.3965H22.4V41.5965Z" fill="#F0CAA2"/>
<path fill-rule="evenodd" clip-rule="evenodd" d="M12.8031 38.3968H16.0031V35.1968H12.8031V38.3968Z" fill="#F0CAA2"/>
<path fill-rule="evenodd" clip-rule="evenodd" d="M12.8031 35.1995H16.0031V31.9995H12.8031V35.1995Z" fill="#F0CAA2"/>
<path fill-rule="evenodd" clip-rule="evenodd" d="M12.8031 22.3997H16.0031V19.1997H12.8031V22.3997Z" fill="#F0CAA2"/>
<path fill-rule="evenodd" clip-rule="evenodd" d="M9.60001 31.9998H12.8032V28.7998H9.60001V31.9998Z" fill="#F0CAA2"/>
<path fill-rule="evenodd" clip-rule="evenodd" d="M9.60001 28.7996H12.8032V25.5996H9.60001V28.7996Z" fill="#F0CAA2"/>
<path fill-rule="evenodd" clip-rule="evenodd" d="M9.60001 25.5999H12.8032V22.3999H9.60001V25.5999Z" fill="#F0CAA2"/>
<path fill-rule="evenodd" clip-rule="evenodd" d="M6.39999 44.7999H9.59999V41.5967H6.39999V44.7999Z" fill="#F0CAA2"/>
<path fill-rule="evenodd" clip-rule="evenodd" d="M54.4 67.1971H57.6V63.9971H54.4V67.1971Z" fill="#231F20"/>
<path fill-rule="evenodd" clip-rule="evenodd" d="M54.4 63.9998H57.6V60.7998H54.4V63.9998Z" fill="#231F20"/>
<path fill-rule="evenodd" clip-rule="evenodd" d="M54.4 60.8001H57.6V57.6001H54.4V60.8001Z" fill="#58CCE1"/>
<path fill-rule="evenodd" clip-rule="evenodd" d="M51.2 79.9998H54.4V76.7998H51.2V79.9998Z" fill="#231F20"/>
<path fill-rule="evenodd" clip-rule="evenodd" d="M51.2 76.8001H54.4V73.6001H51.2V76.8001Z" fill="#231F20"/>
<path fill-rule="evenodd" clip-rule="evenodd" d="M51.2 73.6002H54.4V70.397H51.2V73.6002Z" fill="#231F20"/>
<path fill-rule="evenodd" clip-rule="evenodd" d="M51.2 70.3968H54.4V67.1968H51.2V70.3968Z" fill="#231F20"/>
<path fill-rule="evenodd" clip-rule="evenodd" d="M51.2 67.1971H54.4V63.9971H51.2V67.1971Z" fill="#231F20"/>
<path fill-rule="evenodd" clip-rule="evenodd" d="M51.2 63.9998H54.4V60.7998H51.2V63.9998Z" fill="#231F20"/>
<path fill-rule="evenodd" clip-rule="evenodd" d="M51.2 60.8001H54.4V57.6001H51.2V60.8001Z" fill="#58CCE1"/>
<path fill-rule="evenodd" clip-rule="evenodd" d="M51.2 57.5999H54.4V54.3999H51.2V57.5999Z" fill="#F0CAA2"/>
<path fill-rule="evenodd" clip-rule="evenodd" d="M48 67.1971H51.2V63.9971H48V67.1971Z" fill="#231F20"/>
<path fill-rule="evenodd" clip-rule="evenodd" d="M48 63.9998H51.2V60.7998H48V63.9998Z" fill="#231F20"/>
<path fill-rule="evenodd" clip-rule="evenodd" d="M48 60.8001H51.2V57.6001H48V60.8001Z" fill="#58CCE1"/>
<path fill-rule="evenodd" clip-rule="evenodd" d="M48 57.5999H51.2V54.3999H48V57.5999Z" fill="#F0CAA2"/>
<path fill-rule="evenodd" clip-rule="evenodd" d="M44.8 67.1971H48V63.9971H44.8V67.1971Z" fill="#231F20"/>
<path fill-rule="evenodd" clip-rule="evenodd" d="M44.8 63.9998H48V60.7998H44.8V63.9998Z" fill="#231F20"/>
<path fill-rule="evenodd" clip-rule="evenodd" d="M44.8 60.8001H48V57.6001H44.8V60.8001Z" fill="#58CCE1"/>
<path fill-rule="evenodd" clip-rule="evenodd" d="M44.8 57.5999H48V54.3999H44.8V57.5999Z" fill="#F0CAA2"/>
<path fill-rule="evenodd" clip-rule="evenodd" d="M44.8 54.4002H48V51.2002H44.8V54.4002Z" fill="#F0CAA2"/>
<path fill-rule="evenodd" clip-rule="evenodd" d="M41.6032 67.1971H44.8032V63.9971H41.6032V67.1971Z" fill="#231F20"/>
<path fill-rule="evenodd" clip-rule="evenodd" d="M41.6032 63.9998H44.8032V60.7998H41.6032V63.9998Z" fill="#231F20"/>
<path fill-rule="evenodd" clip-rule="evenodd" d="M41.6032 54.4002H44.8032V51.2002H41.6032V54.4002Z" fill="#F0CAA2"/>
<path fill-rule="evenodd" clip-rule="evenodd" d="M41.6032 51.2H44.8032V48H41.6032V51.2Z" fill="#F0CAA2"/>
<path fill-rule="evenodd" clip-rule="evenodd" d="M41.6032 25.5999H44.8032V22.3999H41.6032V25.5999Z" fill="#E43E62"/>
<path fill-rule="evenodd" clip-rule="evenodd" d="M41.6032 22.4002H44.8032V19.2002H41.6032V22.4002Z" fill="#E43E62"/>
<path fill-rule="evenodd" clip-rule="evenodd" d="M41.6032 19.2H44.8032V16H41.6032V19.2Z" fill="#E43E62"/>
<path fill-rule="evenodd" clip-rule="evenodd" d="M41.6032 16.0001H44.8032V12.7969H41.6032V16.0001Z" fill="#E43E62"/>
<path fill-rule="evenodd" clip-rule="evenodd" d="M38.4 67.1971H41.6032V63.9971H38.4V67.1971Z" fill="#231F20"/>
<path fill-rule="evenodd" clip-rule="evenodd" d="M38.4 63.9998H41.6032V60.7998H38.4V63.9998Z" fill="#231F20"/>
<path fill-rule="evenodd" clip-rule="evenodd" d="M38.4 51.2H41.6032V48H38.4V51.2Z" fill="black" fill-opacity="0.15"/>
<path fill-rule="evenodd" clip-rule="evenodd" d="M38.4 47.9998H41.6032V44.7998H38.4V47.9998Z" fill="black" fill-opacity="0.15"/>
<path fill-rule="evenodd" clip-rule="evenodd" d="M38.4 35.2H41.6032V32H38.4V35.2Z" fill="#F0CAA2"/>
<path fill-rule="evenodd" clip-rule="evenodd" d="M38.4 31.9998H41.6032V28.7998H38.4V31.9998Z" fill="#F0CAA2"/>
<path fill-rule="evenodd" clip-rule="evenodd" d="M38.4 28.8001H41.6032V25.6001H38.4V28.8001Z" fill="#F0CAA2"/>
<path fill-rule="evenodd" clip-rule="evenodd" d="M38.4 25.5999H41.6032V22.3999H38.4V25.5999Z" fill="#F0CAA2"/>
<path fill-rule="evenodd" clip-rule="evenodd" d="M38.4 22.4002H41.6032V19.2002H38.4V22.4002Z" fill="#231F20"/>
<path fill-rule="evenodd" clip-rule="evenodd" d="M38.4 19.2H41.6032V16H38.4V19.2Z" fill="#231F20"/>
<path fill-rule="evenodd" clip-rule="evenodd" d="M38.4 16.0001H41.6032V12.7969H38.4V16.0001Z" fill="#231F20"/>
<path fill-rule="evenodd" clip-rule="evenodd" d="M38.4 12.7967H41.6032V9.59668H38.4V12.7967Z" fill="#231F20"/>
<path fill-rule="evenodd" clip-rule="evenodd" d="M38.4 9.59697H41.6032V6.39697H38.4V9.59697Z" fill="#231F20"/>
<path fill-rule="evenodd" clip-rule="evenodd" d="M35.2 79.9998H38.4V76.7998H35.2V79.9998Z" fill="#F0CAA2"/>
<path fill-rule="evenodd" clip-rule="evenodd" d="M35.2 67.1971H38.4V63.9971H35.2V67.1971Z" fill="#231F20"/>
<path fill-rule="evenodd" clip-rule="evenodd" d="M35.2 63.9998H38.4V60.7998H35.2V63.9998Z" fill="#231F20"/>
<path fill-rule="evenodd" clip-rule="evenodd" d="M35.2 60.8001H38.4V57.6001H35.2V60.8001Z" fill="#E43E62"/>
<path fill-rule="evenodd" clip-rule="evenodd" d="M35.2 47.9998H38.4V44.7998H35.2V47.9998Z" fill="#231F20"/>
<path fill-rule="evenodd" clip-rule="evenodd" d="M35.2 44.7999H38.4V41.5967H35.2V44.7999Z" fill="#231F20"/>
<path fill-rule="evenodd" clip-rule="evenodd" d="M35.2 38.3968H38.4V35.1968H35.2V38.3968Z" fill="#F0CAA2"/>
<path fill-rule="evenodd" clip-rule="evenodd" d="M35.2 35.2H38.4V32H35.2V35.2Z" fill="#F0CAA2"/>
<path fill-rule="evenodd" clip-rule="evenodd" d="M35.2 31.9998H38.4V28.7998H35.2V31.9998Z" fill="#F0CAA2"/>
<path fill-rule="evenodd" clip-rule="evenodd" d="M35.2 28.8001H38.4V25.6001H35.2V28.8001Z" fill="#231F20"/>
<path fill-rule="evenodd" clip-rule="evenodd" d="M35.2 25.5999H38.4V22.3999H35.2V25.5999Z" fill="#F0CAA2"/>
<path fill-rule="evenodd" clip-rule="evenodd" d="M35.2 22.4002H38.4V19.2002H35.2V22.4002Z" fill="#F0CAA2"/>
<path fill-rule="evenodd" clip-rule="evenodd" d="M35.2 19.2H38.4V16H35.2V19.2Z" fill="#231F20"/>
<path fill-rule="evenodd" clip-rule="evenodd" d="M35.2 16.0001H38.4V12.7969H35.2V16.0001Z" fill="#231F20"/>
<path fill-rule="evenodd" clip-rule="evenodd" d="M35.2 12.7967H38.4V9.59668H35.2V12.7967Z" fill="#231F20"/>
<path fill-rule="evenodd" clip-rule="evenodd" d="M35.2 9.59697H38.4V6.39697H35.2V9.59697Z" fill="#E43E62"/>
<path fill-rule="evenodd" clip-rule="evenodd" d="M32 79.9998H35.2V76.7998H32V79.9998Z" fill="#F0CAA2"/>
<path fill-rule="evenodd" clip-rule="evenodd" d="M32 76.8001H35.2V73.6001H32V76.8001Z" fill="#6D6E70"/>
<path fill-rule="evenodd" clip-rule="evenodd" d="M32 73.6002H35.2V70.397H32V73.6002Z" fill="#6D6E70"/>
<path fill-rule="evenodd" clip-rule="evenodd" d="M32 70.3968H35.2V67.1968H32V70.3968Z" fill="#6D6E70"/>
<path fill-rule="evenodd" clip-rule="evenodd" d="M32 67.1971H35.2V63.9971H32V67.1971Z" fill="#231F20"/>
<path fill-rule="evenodd" clip-rule="evenodd" d="M32 63.9998H35.2V60.7998H32V63.9998Z" fill="#231F20"/>
<path fill-rule="evenodd" clip-rule="evenodd" d="M32 60.8001H35.2V57.6001H32V60.8001Z" fill="#E43E62"/>
<path fill-rule="evenodd" clip-rule="evenodd" d="M32 57.5999H35.2V54.3999H32V57.5999Z" fill="#231F20"/>
<path fill-rule="evenodd" clip-rule="evenodd" d="M32 54.4002H35.2V51.2002H32V54.4002Z" fill="#231F20"/>
<path fill-rule="evenodd" clip-rule="evenodd" d="M32 51.2H35.2V48H32V51.2Z" fill="#231F20"/>
<path fill-rule="evenodd" clip-rule="evenodd" d="M32 47.9998H35.2V44.7998H32V47.9998Z" fill="#231F20"/>
<path fill-rule="evenodd" clip-rule="evenodd" d="M32 44.7999H35.2V41.5967H32V44.7999Z" fill="#231F20"/>
<path fill-rule="evenodd" clip-rule="evenodd" d="M32 38.3968H35.2V35.1968H32V38.3968Z" fill="#F0CAA2"/>
<path fill-rule="evenodd" clip-rule="evenodd" d="M32 35.2H35.2V32H32V35.2Z" fill="#F0CAA2"/>
<path fill-rule="evenodd" clip-rule="evenodd" d="M32 31.9998H35.2V28.7998H32V31.9998Z" fill="#F0CAA2"/>
<path fill-rule="evenodd" clip-rule="evenodd" d="M32 28.8001H35.2V25.6001H32V28.8001Z" fill="#231F20"/>
<path fill-rule="evenodd" clip-rule="evenodd" d="M32 25.5999H35.2V22.3999H32V25.5999Z" fill="#F0CAA2"/>
<path fill-rule="evenodd" clip-rule="evenodd" d="M32 22.4002H35.2V19.2002H32V22.4002Z" fill="#F0CAA2"/>
<path fill-rule="evenodd" clip-rule="evenodd" d="M32 19.2H35.2V16H32V19.2Z" fill="#231F20"/>
<path fill-rule="evenodd" clip-rule="evenodd" d="M32 16.0001H35.2V12.7969H32V16.0001Z" fill="#231F20"/>
<path fill-rule="evenodd" clip-rule="evenodd" d="M32 12.7967H35.2V9.59668H32V12.7967Z" fill="#231F20"/>
<path fill-rule="evenodd" clip-rule="evenodd" d="M32 9.59697H35.2V6.39697H32V9.59697Z" fill="#231F20"/>
<path fill-rule="evenodd" clip-rule="evenodd" d="M32 6.4002H35.2V3.2002H32V6.4002Z" fill="#231F20"/>
<path fill-rule="evenodd" clip-rule="evenodd" d="M32 3.2H35.2V0H32V3.2Z" fill="#231F20"/>
<path fill-rule="evenodd" clip-rule="evenodd" d="M28.8 79.9998H32V76.7998H28.8V79.9998Z" fill="#231F20"/>
<path fill-rule="evenodd" clip-rule="evenodd" d="M28.8 76.8001H32V73.6001H28.8V76.8001Z" fill="#231F20"/>
<path fill-rule="evenodd" clip-rule="evenodd" d="M28.8 73.6002H32V70.397H28.8V73.6002Z" fill="#231F20"/>
<path fill-rule="evenodd" clip-rule="evenodd" d="M28.8 70.3968H32V67.1968H28.8V70.3968Z" fill="#231F20"/>
<path fill-rule="evenodd" clip-rule="evenodd" d="M28.8 67.1971H32V63.9971H28.8V67.1971Z" fill="#231F20"/>
<path fill-rule="evenodd" clip-rule="evenodd" d="M28.8 63.9998H32V60.7998H28.8V63.9998Z" fill="#231F20"/>
<path fill-rule="evenodd" clip-rule="evenodd" d="M28.8 60.8001H32V57.6001H28.8V60.8001Z" fill="#E43E62"/>
<path fill-rule="evenodd" clip-rule="evenodd" d="M28.8 57.5999H32V54.3999H28.8V57.5999Z" fill="#231F20"/>
<path fill-rule="evenodd" clip-rule="evenodd" d="M28.8 54.4002H32V51.2002H28.8V54.4002Z" fill="#231F20"/>
<path fill-rule="evenodd" clip-rule="evenodd" d="M28.8 51.2H32V48H28.8V51.2Z" fill="#231F20"/>
<path fill-rule="evenodd" clip-rule="evenodd" d="M28.8 47.9998H32V44.7998H28.8V47.9998Z" fill="#231F20"/>
<path fill-rule="evenodd" clip-rule="evenodd" d="M28.8 44.7999H32V41.5967H28.8V44.7999Z" fill="#231F20"/>
<path fill-rule="evenodd" clip-rule="evenodd" d="M28.8 38.3968H32V35.1968H28.8V38.3968Z" fill="#F0CAA2"/>
<path fill-rule="evenodd" clip-rule="evenodd" d="M28.8 35.2H32V32H28.8V35.2Z" fill="#F0CAA2"/>
<path fill-rule="evenodd" clip-rule="evenodd" d="M28.8 31.9998H32V28.7998H28.8V31.9998Z" fill="#F0CAA2"/>
<path fill-rule="evenodd" clip-rule="evenodd" d="M28.8 28.8001H32V25.6001H28.8V28.8001Z" fill="#F0CAA2"/>
<path fill-rule="evenodd" clip-rule="evenodd" d="M28.8 25.5999H32V22.3999H28.8V25.5999Z" fill="#F0CAA2"/>
<path fill-rule="evenodd" clip-rule="evenodd" d="M28.8 22.4002H32V19.2002H28.8V22.4002Z" fill="#F0CAA2"/>
<path fill-rule="evenodd" clip-rule="evenodd" d="M28.8 19.2H32V16H28.8V19.2Z" fill="#231F20"/>
<path fill-rule="evenodd" clip-rule="evenodd" d="M28.8 16.0001H32V12.7969H28.8V16.0001Z" fill="#231F20"/>
<path fill-rule="evenodd" clip-rule="evenodd" d="M28.8 12.7967H32V9.59668H28.8V12.7967Z" fill="#231F20"/>
<path fill-rule="evenodd" clip-rule="evenodd" d="M28.8 9.59697H32V6.39697H28.8V9.59697Z" fill="#231F20"/>
<path fill-rule="evenodd" clip-rule="evenodd" d="M28.8 6.4002H32V3.2002H28.8V6.4002Z" fill="#E43E62"/>
<path fill-rule="evenodd" clip-rule="evenodd" d="M25.6 67.1971H28.8V63.9971H25.6V67.1971Z" fill="#231F20"/>
<path fill-rule="evenodd" clip-rule="evenodd" d="M25.6 63.9998H28.8V60.7998H25.6V63.9998Z" fill="#231F20"/>
<path fill-rule="evenodd" clip-rule="evenodd" d="M25.6 60.8001H28.8V57.6001H25.6V60.8001Z" fill="#E43E62"/>
<path fill-rule="evenodd" clip-rule="evenodd" d="M25.6 57.5999H28.8V54.3999H25.6V57.5999Z" fill="#231F20"/>
<path fill-rule="evenodd" clip-rule="evenodd" d="M25.6 54.4002H28.8V51.2002H25.6V54.4002Z" fill="#231F20"/>
<path fill-rule="evenodd" clip-rule="evenodd" d="M25.6 51.2H28.8V48H25.6V51.2Z" fill="#231F20"/>
<path fill-rule="evenodd" clip-rule="evenodd" d="M25.6 47.9998H28.8V44.7998H25.6V47.9998Z" fill="#231F20"/>
<path fill-rule="evenodd" clip-rule="evenodd" d="M25.6 44.7999H28.8V41.5967H25.6V44.7999Z" fill="black" fill-opacity="0.15"/>
<path fill-rule="evenodd" clip-rule="evenodd" d="M25.6 41.597H28.8V38.397H25.6V41.597Z" fill="black" fill-opacity="0.15"/>
<path fill-rule="evenodd" clip-rule="evenodd" d="M25.6 38.3968H28.8V35.1968H25.6V38.3968Z" fill="#F0CAA2"/>
<path fill-rule="evenodd" clip-rule="evenodd" d="M25.6 35.2H28.8V32H25.6V35.2Z" fill="#F0CAA2"/>
<path fill-rule="evenodd" clip-rule="evenodd" d="M25.6 31.9998H28.8V28.7998H25.6V31.9998Z" fill="#F0CAA2"/>
<path fill-rule="evenodd" clip-rule="evenodd" d="M25.6 28.8001H28.8V25.6001H25.6V28.8001Z" fill="#F0CAA2"/>
<path fill-rule="evenodd" clip-rule="evenodd" d="M25.6 25.5999H28.8V22.3999H25.6V25.5999Z" fill="#F0CAA2"/>
<path fill-rule="evenodd" clip-rule="evenodd" d="M25.6 22.4002H28.8V19.2002H25.6V22.4002Z" fill="#F0CAA2"/>
<path fill-rule="evenodd" clip-rule="evenodd" d="M25.6 19.2H28.8V16H25.6V19.2Z" fill="#231F20"/>
<path fill-rule="evenodd" clip-rule="evenodd" d="M25.6 16.0001H28.8V12.7969H25.6V16.0001Z" fill="#231F20"/>
<path fill-rule="evenodd" clip-rule="evenodd" d="M25.6 12.7967H28.8V9.59668H25.6V12.7967Z" fill="#231F20"/>
<path fill-rule="evenodd" clip-rule="evenodd" d="M25.6 9.59697H28.8V6.39697H25.6V9.59697Z" fill="#231F20"/>
<path fill-rule="evenodd" clip-rule="evenodd" d="M25.6 6.4002H28.8V3.2002H25.6V6.4002Z" fill="#231F20"/>
<path fill-rule="evenodd" clip-rule="evenodd" d="M25.6 3.2H28.8V0H25.6V3.2Z" fill="#231F20"/>
<path fill-rule="evenodd" clip-rule="evenodd" d="M22.4 79.9998H25.6V76.7998H22.4V79.9998Z" fill="#F0CAA2"/>
<path fill-rule="evenodd" clip-rule="evenodd" d="M22.4 67.1971H25.6V63.9971H22.4V67.1971Z" fill="#6D6E70"/>
<path fill-rule="evenodd" clip-rule="evenodd" d="M22.4 63.9998H25.6V60.7998H22.4V63.9998Z" fill="#E43E62"/>
<path fill-rule="evenodd" clip-rule="evenodd" d="M22.4 60.8001H25.6V57.6001H22.4V60.8001Z" fill="#231F20"/>
<path fill-rule="evenodd" clip-rule="evenodd" d="M22.4 57.5999H25.6V54.3999H22.4V57.5999Z" fill="#231F20"/>
<path fill-rule="evenodd" clip-rule="evenodd" d="M22.4 54.4002H25.6V51.2002H22.4V54.4002Z" fill="#231F20"/>
<path fill-rule="evenodd" clip-rule="evenodd" d="M22.4 51.2H25.6V48H22.4V51.2Z" fill="#231F20"/>
<path fill-rule="evenodd" clip-rule="evenodd" d="M22.4 47.9998H25.6V44.7998H22.4V47.9998Z" fill="#231F20"/>
<path fill-rule="evenodd" clip-rule="evenodd" d="M22.4 44.7999H25.6V41.5967H22.4V44.7999Z" fill="black" fill-opacity="0.15"/>
<path fill-rule="evenodd" clip-rule="evenodd" d="M22.4 41.597H25.6V38.397H22.4V41.597Z" fill="black" fill-opacity="0.15"/>
<path fill-rule="evenodd" clip-rule="evenodd" d="M22.4 38.3968H25.6V35.1968H22.4V38.3968Z" fill="#F0CAA2"/>
<path fill-rule="evenodd" clip-rule="evenodd" d="M22.4 35.2H25.6V32H22.4V35.2Z" fill="#F0CAA2"/>
<path fill-rule="evenodd" clip-rule="evenodd" d="M22.4 31.9998H25.6V28.7998H22.4V31.9998Z" fill="#F0CAA2"/>
<path fill-rule="evenodd" clip-rule="evenodd" d="M22.4 28.8001H25.6V25.6001H22.4V28.8001Z" fill="#F0CAA2"/>
<path fill-rule="evenodd" clip-rule="evenodd" d="M22.4 25.5999H25.6V22.3999H22.4V25.5999Z" fill="#F0CAA2"/>
<path fill-rule="evenodd" clip-rule="evenodd" d="M22.4 22.4002H25.6V19.2002H22.4V22.4002Z" fill="#F0CAA2"/>
<path fill-rule="evenodd" clip-rule="evenodd" d="M22.4 19.2H25.6V16H22.4V19.2Z" fill="#231F20"/>
<path fill-rule="evenodd" clip-rule="evenodd" d="M22.4 16.0001H25.6V12.7969H22.4V16.0001Z" fill="#231F20"/>
<path fill-rule="evenodd" clip-rule="evenodd" d="M22.4 12.7967H25.6V9.59668H22.4V12.7967Z" fill="#231F20"/>
<path fill-rule="evenodd" clip-rule="evenodd" d="M22.4 9.59697H25.6V6.39697H22.4V9.59697Z" fill="#231F20"/>
<path fill-rule="evenodd" clip-rule="evenodd" d="M22.4 6.4002H25.6V3.2002H22.4V6.4002Z" fill="#E43E62"/>
<path fill-rule="evenodd" clip-rule="evenodd" d="M19.2 79.9998H22.4V76.7998H19.2V79.9998Z" fill="#F0CAA2"/>
<path fill-rule="evenodd" clip-rule="evenodd" d="M19.2 76.8001H22.4V73.6001H19.2V76.8001Z" fill="#6D6E70"/>
<path fill-rule="evenodd" clip-rule="evenodd" d="M19.2 73.6002H22.4V70.397H19.2V73.6002Z" fill="#6D6E70"/>
<path fill-rule="evenodd" clip-rule="evenodd" d="M19.2 70.3968H22.4V67.1968H19.2V70.3968Z" fill="#6D6E70"/>
<path fill-rule="evenodd" clip-rule="evenodd" d="M19.2 67.1971H22.4V63.9971H19.2V67.1971Z" fill="#6D6E70"/>
<path fill-rule="evenodd" clip-rule="evenodd" d="M19.2 63.9998H22.4V60.7998H19.2V63.9998Z" fill="#E43E62"/>
<path fill-rule="evenodd" clip-rule="evenodd" d="M19.2 60.8001H22.4V57.6001H19.2V60.8001Z" fill="#231F20"/>
<path fill-rule="evenodd" clip-rule="evenodd" d="M19.2 57.5999H22.4V54.3999H19.2V57.5999Z" fill="#231F20"/>
<path fill-rule="evenodd" clip-rule="evenodd" d="M19.2 54.4002H22.4V51.2002H19.2V54.4002Z" fill="#231F20"/>
<path fill-rule="evenodd" clip-rule="evenodd" d="M19.2 51.2H22.4V48H19.2V51.2Z" fill="#231F20"/>
<path fill-rule="evenodd" clip-rule="evenodd" d="M19.2 47.9998H22.4V44.7998H19.2V47.9998Z" fill="#231F20"/>
<path fill-rule="evenodd" clip-rule="evenodd" d="M19.2 44.7999H22.4V41.5967H19.2V44.7999Z" fill="#231F20"/>
<path fill-rule="evenodd" clip-rule="evenodd" d="M19.2 38.3968H22.4V35.1968H19.2V38.3968Z" fill="#F0CAA2"/>
<path fill-rule="evenodd" clip-rule="evenodd" d="M19.2 35.2H22.4V32H19.2V35.2Z" fill="#F0CAA2"/>
<path fill-rule="evenodd" clip-rule="evenodd" d="M19.2 31.9998H22.4V28.7998H19.2V31.9998Z" fill="#F0CAA2"/>
<path fill-rule="evenodd" clip-rule="evenodd" d="M19.2 28.8001H22.4V25.6001H19.2V28.8001Z" fill="#231F20"/>
<path fill-rule="evenodd" clip-rule="evenodd" d="M19.2 25.5999H22.4V22.3999H19.2V25.5999Z" fill="#F0CAA2"/>
<path fill-rule="evenodd" clip-rule="evenodd" d="M19.2 22.4002H22.4V19.2002H19.2V22.4002Z" fill="#F0CAA2"/>
<path fill-rule="evenodd" clip-rule="evenodd" d="M19.2 19.2H22.4V16H19.2V19.2Z" fill="#231F20"/>
<path fill-rule="evenodd" clip-rule="evenodd" d="M19.2 16.0001H22.4V12.7969H19.2V16.0001Z" fill="#231F20"/>
<path fill-rule="evenodd" clip-rule="evenodd" d="M19.2 12.7967H22.4V9.59668H19.2V12.7967Z" fill="#231F20"/>
<path fill-rule="evenodd" clip-rule="evenodd" d="M19.2 9.59697H22.4V6.39697H19.2V9.59697Z" fill="#231F20"/>
<path fill-rule="evenodd" clip-rule="evenodd" d="M19.2 6.4002H22.4V3.2002H19.2V6.4002Z" fill="#231F20"/>
<path fill-rule="evenodd" clip-rule="evenodd" d="M19.2 3.2H22.4V0H19.2V3.2Z" fill="#231F20"/>
<path fill-rule="evenodd" clip-rule="evenodd" d="M16 79.9998H19.2V76.7998H16V79.9998Z" fill="#F0CAA2"/>
<path fill-rule="evenodd" clip-rule="evenodd" d="M16 76.8001H19.2V73.6001H16V76.8001Z" fill="#6D6E70"/>
<path fill-rule="evenodd" clip-rule="evenodd" d="M16 73.6002H19.2V70.397H16V73.6002Z" fill="#6D6E70"/>
<path fill-rule="evenodd" clip-rule="evenodd" d="M16 70.3968H19.2V67.1968H16V70.3968Z" fill="#6D6E70"/>
<path fill-rule="evenodd" clip-rule="evenodd" d="M16 67.1971H19.2V63.9971H16V67.1971Z" fill="#6D6E70"/>
<path fill-rule="evenodd" clip-rule="evenodd" d="M16 63.9998H19.2V60.7998H16V63.9998Z" fill="#6D6E70"/>
<path fill-rule="evenodd" clip-rule="evenodd" d="M16 60.8001H19.2V57.6001H16V60.8001Z" fill="#E43E62"/>
<path fill-rule="evenodd" clip-rule="evenodd" d="M16 57.5999H19.2V54.3999H16V57.5999Z" fill="#231F20"/>
<path fill-rule="evenodd" clip-rule="evenodd" d="M16 54.4002H19.2V51.2002H16V54.4002Z" fill="#231F20"/>
<path fill-rule="evenodd" clip-rule="evenodd" d="M16 51.2H19.2V48H16V51.2Z" fill="#231F20"/>
<path fill-rule="evenodd" clip-rule="evenodd" d="M16 47.9998H19.2V44.7998H16V47.9998Z" fill="#231F20"/>
<path fill-rule="evenodd" clip-rule="evenodd" d="M16 44.7999H19.2V41.5967H16V44.7999Z" fill="#231F20"/>
<path fill-rule="evenodd" clip-rule="evenodd" d="M16 38.3968H19.2V35.1968H16V38.3968Z" fill="#F0CAA2"/>
<path fill-rule="evenodd" clip-rule="evenodd" d="M16 35.2H19.2V32H16V35.2Z" fill="#F0CAA2"/>
<path fill-rule="evenodd" clip-rule="evenodd" d="M16 31.9998H19.2V28.7998H16V31.9998Z" fill="#F0CAA2"/>
<path fill-rule="evenodd" clip-rule="evenodd" d="M16 28.8001H19.2V25.6001H16V28.8001Z" fill="#231F20"/>
<path fill-rule="evenodd" clip-rule="evenodd" d="M16 25.5999H19.2V22.3999H16V25.5999Z" fill="#F0CAA2"/>
<path fill-rule="evenodd" clip-rule="evenodd" d="M16 22.4002H19.2V19.2002H16V22.4002Z" fill="#F0CAA2"/>
<path fill-rule="evenodd" clip-rule="evenodd" d="M16 19.2H19.2V16H16V19.2Z" fill="#231F20"/>
<path fill-rule="evenodd" clip-rule="evenodd" d="M16 16.0001H19.2V12.7969H16V16.0001Z" fill="#231F20"/>
<path fill-rule="evenodd" clip-rule="evenodd" d="M16 12.7967H19.2V9.59668H16V12.7967Z" fill="#231F20"/>
<path fill-rule="evenodd" clip-rule="evenodd" d="M16 9.59697H19.2V6.39697H16V9.59697Z" fill="#231F20"/>
<path fill-rule="evenodd" clip-rule="evenodd" d="M16 6.4002H19.2V3.2002H16V6.4002Z" fill="#E43E62"/>
<path fill-rule="evenodd" clip-rule="evenodd" d="M12.8032 57.5999H16.0032V54.3999H12.8032V57.5999Z" fill="#E43E62"/>
<path fill-rule="evenodd" clip-rule="evenodd" d="M12.8032 47.9998H16.0032V44.7998H12.8032V47.9998Z" fill="#231F20"/>
<path fill-rule="evenodd" clip-rule="evenodd" d="M12.8032 44.7999H16.0032V41.5967H12.8032V44.7999Z" fill="#231F20"/>
<path fill-rule="evenodd" clip-rule="evenodd" d="M12.8032 38.3968H16.0032V35.1968H12.8032V38.3968Z" fill="black" fill-opacity="0.15"/>
<path fill-rule="evenodd" clip-rule="evenodd" d="M12.8032 35.2H16.0032V32H12.8032V35.2Z" fill="black" fill-opacity="0.15"/>
<path fill-rule="evenodd" clip-rule="evenodd" d="M12.8032 31.9998H16.0032V28.7998H12.8032V31.9998Z" fill="#F0CAA2"/>
<path fill-rule="evenodd" clip-rule="evenodd" d="M12.8032 28.8001H16.0032V25.6001H12.8032V28.8001Z" fill="#F0CAA2"/>
<path fill-rule="evenodd" clip-rule="evenodd" d="M12.8032 25.5999H16.0032V22.3999H12.8032V25.5999Z" fill="#F0CAA2"/>
<path fill-rule="evenodd" clip-rule="evenodd" d="M12.8032 22.4002H16.0032V19.2002H12.8032V22.4002Z" fill="black" fill-opacity="0.15"/>
<path fill-rule="evenodd" clip-rule="evenodd" d="M12.8032 19.2H16.0032V16H12.8032V19.2Z" fill="#231F20"/>
<path fill-rule="evenodd" clip-rule="evenodd" d="M12.8032 16.0001H16.0032V12.7969H12.8032V16.0001Z" fill="#231F20"/>
<path fill-rule="evenodd" clip-rule="evenodd" d="M12.8032 12.7967H16.0032V9.59668H12.8032V12.7967Z" fill="#231F20"/>
<path fill-rule="evenodd" clip-rule="evenodd" d="M12.8032 9.59697H16.0032V6.39697H12.8032V9.59697Z" fill="#231F20"/>
<path fill-rule="evenodd" clip-rule="evenodd" d="M12.8032 6.4002H16.0032V3.2002H12.8032V6.4002Z" fill="#231F20"/>
<path fill-rule="evenodd" clip-rule="evenodd" d="M9.60001 54.4002H12.8032V51.2002H9.60001V54.4002Z" fill="#E43E62"/>
<path fill-rule="evenodd" clip-rule="evenodd" d="M9.60001 51.2H12.8032V48H9.60001V51.2Z" fill="#E43E62"/>
<path fill-rule="evenodd" clip-rule="evenodd" d="M9.60001 47.9998H12.8032V44.7998H9.60001V47.9998Z" fill="#E43E62"/>
<path fill-rule="evenodd" clip-rule="evenodd" d="M9.60001 44.7999H12.8032V41.5967H9.60001V44.7999Z" fill="#E43E62"/>
<path fill-rule="evenodd" clip-rule="evenodd" d="M9.60001 41.597H12.8032V38.397H9.60001V41.597Z" fill="#E43E62"/>
<path fill-rule="evenodd" clip-rule="evenodd" d="M9.60001 38.3968H12.8032V35.1968H9.60001V38.3968Z" fill="#E43E62"/>
<path fill-rule="evenodd" clip-rule="evenodd" d="M9.60001 35.2H12.8032V32H9.60001V35.2Z" fill="#E43E62"/>
<path fill-rule="evenodd" clip-rule="evenodd" d="M9.60001 31.9998H12.8032V28.7998H9.60001V31.9998Z" fill="black" fill-opacity="0.15"/>
<path fill-rule="evenodd" clip-rule="evenodd" d="M9.60001 28.8001H12.8032V25.6001H9.60001V28.8001Z" fill="black" fill-opacity="0.15"/>
<path fill-rule="evenodd" clip-rule="evenodd" d="M9.60001 25.5999H12.8032V22.3999H9.60001V25.5999Z" fill="black" fill-opacity="0.15"/>
<path fill-rule="evenodd" clip-rule="evenodd" d="M9.60001 22.4002H12.8032V19.2002H9.60001V22.4002Z" fill="#231F20"/>
<path fill-rule="evenodd" clip-rule="evenodd" d="M9.60001 19.2H12.8032V16H9.60001V19.2Z" fill="#231F20"/>
<path fill-rule="evenodd" clip-rule="evenodd" d="M9.60001 16.0001H12.8032V12.7969H9.60001V16.0001Z" fill="#231F20"/>
<path fill-rule="evenodd" clip-rule="evenodd" d="M9.60001 12.7967H12.8032V9.59668H9.60001V12.7967Z" fill="#231F20"/>
<path fill-rule="evenodd" clip-rule="evenodd" d="M9.60001 9.59697H12.8032V6.39697H9.60001V9.59697Z" fill="#E43E62"/>
<path fill-rule="evenodd" clip-rule="evenodd" d="M6.39999 44.7999H9.59999V41.5967H6.39999V44.7999Z" fill="black" fill-opacity="0.15"/>
<path fill-rule="evenodd" clip-rule="evenodd" d="M6.39999 31.9998H9.59999V28.7998H6.39999V31.9998Z" fill="#E43E62"/>
<path fill-rule="evenodd" clip-rule="evenodd" d="M6.39999 28.8001H9.59999V25.6001H6.39999V28.8001Z" fill="#E43E62"/>
<path fill-rule="evenodd" clip-rule="evenodd" d="M6.39999 25.5999H9.59999V22.3999H6.39999V25.5999Z" fill="#E43E62"/>
<path fill-rule="evenodd" clip-rule="evenodd" d="M6.39999 22.4002H9.59999V19.2002H6.39999V22.4002Z" fill="#E43E62"/>
<path fill-rule="evenodd" clip-rule="evenodd" d="M6.39999 19.2H9.59999V16H6.39999V19.2Z" fill="#E43E62"/>
<path fill-rule="evenodd" clip-rule="evenodd" d="M6.39999 16.0001H9.59999V12.7969H6.39999V16.0001Z" fill="#E43E62"/>
<path fill-rule="evenodd" clip-rule="evenodd" d="M6.39999 12.7967H9.59999V9.59668H6.39999V12.7967Z" fill="#E43E62"/>
<path fill-rule="evenodd" clip-rule="evenodd" d="M3.20001 44.7999H6.40001V41.5967H3.20001V44.7999Z" fill="#F0CAA2"/>
<path fill-rule="evenodd" clip-rule="evenodd" d="M3.20001 41.597H6.40001V38.397H3.20001V41.597Z" fill="#F0CAA2"/>
<path fill-rule="evenodd" clip-rule="evenodd" d="M3.20001 35.2H6.40001V32H3.20001V35.2Z" fill="#F0CAA2"/>
<path fill-rule="evenodd" clip-rule="evenodd" d="M3.20001 31.9998H6.40001V28.7998H3.20001V31.9998Z" fill="#F0CAA2"/>
<path fill-rule="evenodd" clip-rule="evenodd" d="M3.20001 28.8001H6.40001V25.6001H3.20001V28.8001Z" fill="#E43E62"/>
<path fill-rule="evenodd" clip-rule="evenodd" d="M3.20001 25.5999H6.40001V22.3999H3.20001V25.5999Z" fill="#E43E62"/>
<path fill-rule="evenodd" clip-rule="evenodd" d="M3.20001 22.4002H6.40001V19.2002H3.20001V22.4002Z" fill="#E43E62"/>
<path fill-rule="evenodd" clip-rule="evenodd" d="M0 41.597H3.2V38.397H0V41.597Z" fill="#F0CAA2"/>
<path fill-rule="evenodd" clip-rule="evenodd" d="M0 38.3968H3.2V35.1968H0V38.3968Z" fill="#F0CAA2"/>
<path fill-rule="evenodd" clip-rule="evenodd" d="M0 35.2H3.2V32H0V35.2Z" fill="#F0CAA2"/>
</svg>
