<svg width="648" height="412" viewBox="0 0 648 412" fill="none" xmlns="http://www.w3.org/2000/svg">
<path d="M4.225 1.43877H643.775C645.817 1.43877 647.472 3.09391 647.472 5.13564V407.09C647.472 409.131 645.817 410.787 643.775 410.787H4.22498C2.18326 410.787 0.528125 409.131 0.528125 407.09V5.13564C0.528125 3.09392 2.18327 1.43877 4.225 1.43877Z" stroke="#4E4E4E" stroke-width="1.05625"/>
<path d="M4.05 1.43877H643.95C645.908 1.43877 647.472 2.98193 647.472 4.85684V16.1673H0.528125V4.85684C0.528125 2.98193 2.09191 1.43877 4.05 1.43877Z" fill="#333333" stroke="#4E4E4E" stroke-width="1.05625"/>
<path fill-rule="evenodd" clip-rule="evenodd" d="M26.325 11.7628C28.0025 11.7628 29.3625 10.4377 29.3625 8.80315C29.3625 7.16858 28.0025 5.84351 26.325 5.84351C24.6474 5.84351 23.2875 7.16858 23.2875 8.80315C23.2875 10.4377 24.6474 11.7628 26.325 11.7628Z" fill="#4E4E4E"/>
<path fill-rule="evenodd" clip-rule="evenodd" d="M17.2125 11.7628C18.8901 11.7628 20.25 10.4377 20.25 8.80315C20.25 7.16858 18.8901 5.84351 17.2125 5.84351C15.5349 5.84351 14.175 7.16858 14.175 8.80315C14.175 10.4377 15.5349 11.7628 17.2125 11.7628Z" fill="#4E4E4E"/>
<path fill-rule="evenodd" clip-rule="evenodd" d="M8.1 11.7628C9.77756 11.7628 11.1375 10.4377 11.1375 8.80315C11.1375 7.16858 9.77756 5.84351 8.1 5.84351C6.42243 5.84351 5.0625 7.16858 5.0625 8.80315C5.0625 10.4377 6.42243 11.7628 8.1 11.7628Z" fill="#4E4E4E"/>
</svg>
